<svg width="343" height="343" viewBox="0 0 343 343" fill="none" xmlns="http://www.w3.org/2000/svg">
<g clip-path="url(#clip0_1274_2759)">
<path d="M153 0H190L213 4L240 13L261 24L277 35L292 48L299 55L308 66L318 80L330 103L337 123L341 139L343 153V190L339 213L330 240L319 261L308 277L295 292L288 299L277 308L263 318L240 330L220 337L204 341L190 343H153L130 339L103 330L82 319L66 308L51 295L44 288L35 277L25 263L13 240L6 220L2 204L0 190V153L4 130L13 103L24 82L35 66L48 51L55 44L66 35L80 25L103 13L123 6L139 2L153 0Z" fill="#A8C8FA"/>
<path d="M153 0H190L213 4L240 13L261 24L277 35L292 48L299 55L308 66L318 80L321 86H160L143 90L127 98L117 105L107 114L99 125L91 141L87 154L86 163V183L90 199L97 215L105 226L114 236L125 244L141 252L154 256L163 257H183L199 253L215 246L226 238L236 229L241 224L239 229L225 253L211 278L201 295L185 323L174 342L173 343H153L130 339L103 330L82 319L66 308L51 295L44 288L35 277L25 263L13 240L6 220L2 204L0 190V153L4 130L13 103L24 82L35 66L48 51L55 44L66 35L80 25L103 13L123 6L139 2L153 0Z" fill="#4096EC"/>
<path d="M153 0H190L213 4L240 13L261 24L277 35L292 48L299 55L308 66L318 80L321 86H160L143 90L127 98L117 105L107 114L99 125L91 141L87 154L86 163V183L88 196L84 191L74 173L60 149L45 123L30 97L23 85L29 74L40 60L52 47L62 38L77 27L93 18L108 11L126 5L145 1L153 0Z" fill="#1970E2"/>
<path d="M165 100H179L194 103L210 111L218 117L229 128L237 141L242 156L243 165V179L240 194L232 210L226 218L215 229L201 237L187 242L178 243H162L146 239L131 231L121 222L114 215L106 201L101 186L100 178V162L104 146L112 131L120 121L131 112L141 106L156 101L165 100Z" fill="#1970E2"/>
<path d="M160 85H180L193 87L209 93L221 100L231 108L241 119L249 132L255 146L258 160V180L256 193L250 209L243 221L235 231L224 241L211 249L197 255L183 258H163L150 256L136 251L122 243L112 235L102 224L94 211L89 199L85 183V163L87 150L92 136L100 122L108 112L119 102L132 94L146 88L160 85ZM165 100L152 102L139 107L127 115L117 124L108 138L103 149L100 162V178L102 190L107 203L114 215L128 229L142 237L152 241L162 243H178L190 241L203 236L215 229L229 215L237 201L241 190L243 179V165L241 152L236 139L228 127L215 114L201 106L190 102L179 100H165Z" fill="#FBFCFE"/>
</g>
<defs>
<clipPath id="clip0_1274_2759">
<rect width="343" height="343" fill="white"/>
</clipPath>
</defs>
</svg>
