<svg width="364" height="364" viewBox="0 0 364 364" fill="none" xmlns="http://www.w3.org/2000/svg">
<rect x="86" y="69" width="212" height="230" fill="white"/>
<path d="M90.5 0.239182C88.9 0.439182 81.2 1.33918 73.5 2.23918C29 7.43918 11 23.1392 4 62.9392C0.5 83.2392 0 96.2392 0 181.639C0 280.839 0.9 295.239 8.1 317.039C17.1 344.339 34.4 356.039 73.1 361.339C85.3 362.939 95 363.139 182 363.139C269 363.139 278.7 362.939 290.9 361.339C315.1 358.039 329.6 352.639 340 342.939C353.6 330.439 360 312.039 363 277.139C364.3 261.339 364.3 101.939 363 86.1392C361.5 68.5392 359.3 56.3392 355.6 45.6392C346.6 18.9392 329.5 7.33918 291 1.93918C279.9 0.439182 268.3 0.239182 186 0.0391818C135.1 -0.0608182 92.2 0.0391818 90.5 0.239182ZM180.6 85.7392C206 88.5392 226.6 98.4392 238.6 113.539C245 121.439 250.8 133.439 253.7 144.539C256 153.039 256.3 156.739 256.7 176.239C257.3 201.839 256 212.939 250.9 227.139C243.5 247.539 227.3 264.039 207.2 271.339C191.9 277.039 185.1 277.839 148.8 278.339C130 278.639 115 278.439 115 278.039C115 277.539 116.9 276.039 119.1 274.639C124.5 271.339 128.6 265.539 131.1 257.639C132.9 252.039 133.3 247.539 133.9 226.139C134.5 202.339 134.6 200.939 136.8 197.439C139.2 193.539 143.7 190.239 148.3 189.139C150.9 188.439 151 188.239 151 181.639C151 175.039 150.9 174.839 148.3 174.139C143 172.939 137.9 168.639 135.7 163.839C133.9 159.639 133.6 156.539 133 133.639C132.3 106.139 131.8 103.339 126.4 95.7392C123.9 92.4392 122.3 90.9392 115.5 86.1392C113.8 84.8392 117.1 84.7392 142.3 84.6392C158.1 84.6392 175.4 85.1392 180.6 85.7392Z" fill="#B13FE2"/>
</svg>
