<svg width="60" height="60" viewBox="0 0 60 60" fill="none" xmlns="http://www.w3.org/2000/svg">
<path d="M40.475 5H19.525C10.425 5 5 10.425 5 19.525V40.45C5 49.575 10.425 55 19.525 55H40.45C49.55 55 54.975 49.575 54.975 40.475V19.525C55 10.425 49.575 5 40.475 5ZM42.5 43.125H17.5C16.475 43.125 15.625 42.275 15.625 41.25C15.625 40.225 16.475 39.375 17.5 39.375H42.5C43.525 39.375 44.375 40.225 44.375 41.25C44.375 42.275 43.525 43.125 42.5 43.125ZM42.5 31.875H17.5C16.475 31.875 15.625 31.025 15.625 30C15.625 28.975 16.475 28.125 17.5 28.125H42.5C43.525 28.125 44.375 28.975 44.375 30C44.375 31.025 43.525 31.875 42.5 31.875ZM42.5 20.625H17.5C16.475 20.625 15.625 19.775 15.625 18.75C15.625 17.725 16.475 16.875 17.5 16.875H42.5C43.525 16.875 44.375 17.725 44.375 18.75C44.375 19.775 43.525 20.625 42.5 20.625Z" fill="url(#paint0_linear_1289_2643)"/>
<defs>
<linearGradient id="paint0_linear_1289_2643" x1="60" y1="109.5" x2="-77.1764" y2="29.9992" gradientUnits="userSpaceOnUse">
<stop stop-color="#CEF1FF"/>
<stop offset="1" stop-color="#78A1B1"/>
</linearGradient>
</defs>
</svg>
