<svg width="343" height="343" viewBox="0 0 343 343" fill="none" xmlns="http://www.w3.org/2000/svg">
<circle cx="115.038" cy="171.198" r="68.2377" stroke="#00ADF0" stroke-width="74.2764"/>
<path d="M229.971 68.1574C207.557 73.8131 195.827 83.8676 181.164 110.261C174.042 123.038 158.332 165.56 149.325 196.143C146.183 207.035 140.528 225.468 136.757 236.989C133.196 248.51 128.797 262.125 127.331 267.153L124.398 276.369L138.642 275.322C159.799 273.856 180.536 263.173 199.388 244.111C207.557 235.942 215.308 226.097 216.774 222.117C219.497 214.576 219.916 214.366 236.255 210.805C265.999 204.521 293.858 177.709 299.514 150.06C300.771 143.566 300.561 143.147 295.744 144.613C287.365 147.127 253.012 148.174 247.566 146.289C243.167 144.613 244.005 143.985 255.107 141.681C277.729 136.654 298.467 124.923 313.967 108.375C320.252 101.882 333.657 75.6983 333.657 70.2521C333.657 66.4817 331.144 66.2722 285.061 66.4817C258.249 66.6911 233.532 67.3195 229.971 68.1574Z" fill="#008CCF"/>
</svg>
