<svg width="60" height="60" viewBox="0 0 60 60" fill="none" xmlns="http://www.w3.org/2000/svg">
<path d="M54.3803 23.8646L49.4924 23.3352C48.8237 23.2629 48.2581 22.8232 48.0014 22.2016C47.9982 22.1943 47.9951 22.1867 47.9922 22.1794C47.7345 21.558 47.8232 20.8474 48.2449 20.3234L51.3269 16.4928C51.9081 15.7706 51.8517 14.7266 51.1962 14.0711L45.4268 8.30173C44.7713 7.6462 43.7274 7.58981 43.0051 8.17095L39.1729 11.2543C38.6502 11.6749 37.9415 11.7642 37.3211 11.5089C37.3143 11.5061 37.3075 11.5033 37.3007 11.5006C36.6769 11.2446 36.2356 10.6781 36.163 10.0077L35.6335 5.11756C35.5338 4.19589 34.7557 3.49756 33.8287 3.49756H25.6696C24.7426 3.49756 23.9645 4.19589 23.8648 5.11756L23.3352 10.0077C23.2627 10.6779 22.8211 11.2446 22.1974 11.5006C22.1906 11.5033 22.1838 11.5061 22.1772 11.5089C21.5567 11.7643 20.8481 11.6749 20.3254 11.2543L16.4928 8.17095C15.7706 7.58981 14.7266 7.6462 14.0713 8.30173L8.30191 14.0711C7.64638 14.7266 7.58999 15.7706 8.17114 16.4928L11.2532 20.3234C11.6749 20.8476 11.7636 21.558 11.5059 22.1794C11.5028 22.1867 11.4999 22.1943 11.4967 22.2016C11.2398 22.8232 10.6744 23.2629 10.0057 23.3352L5.11756 23.8646C4.19589 23.9643 3.49756 24.7424 3.49756 25.6694V33.8285C3.49756 34.7555 4.19589 35.5336 5.11756 35.6333L10.0055 36.1625C10.6742 36.2348 11.2398 36.6746 11.4966 37.2961C11.4997 37.3035 11.5026 37.311 11.5057 37.3183C11.7634 37.9397 11.6747 38.6503 11.253 39.1745L8.17095 43.0051C7.58981 43.7273 7.6462 44.7713 8.30173 45.4268L14.0711 51.1962C14.7266 51.8517 15.7706 51.9081 16.4928 51.3269L20.325 48.2436C20.8478 47.8228 21.5564 47.7336 22.1768 47.989C22.1836 47.9918 22.1904 47.9946 22.1972 47.9973C22.821 48.2534 23.2623 48.8198 23.3349 49.4902L23.8644 54.3803C23.9641 55.302 24.7422 56.0003 25.6692 56.0003H33.8283C34.7553 56.0003 35.5334 55.302 35.6331 54.3803L36.1627 49.4902C36.2352 48.82 36.6766 48.2534 37.3003 47.9973C37.3071 47.9946 37.3139 47.9918 37.3205 47.989C37.941 47.7336 38.6496 47.8228 39.1725 48.2436L43.0047 51.3269C43.7269 51.9081 44.7709 51.8517 45.4264 51.1962L51.1958 45.4268C51.8513 44.7713 51.9075 43.7273 51.3266 43.0051L48.2445 39.1745C47.8228 38.6505 47.7341 37.9399 47.9918 37.3183C47.9947 37.311 47.9979 37.3036 48.001 37.2961C48.2579 36.6746 48.8233 36.2348 49.492 36.1625L54.38 35.6333C55.3015 35.5334 56 34.7554 56 33.8285V25.6694C56.0003 24.7424 55.302 23.9643 54.3803 23.8646ZM29.749 37.9333C25.2289 37.9333 21.5646 34.269 21.5646 29.749C21.5646 25.2289 25.2289 21.5646 29.749 21.5646C34.269 21.5646 37.9333 25.2289 37.9333 29.749C37.9333 34.269 34.269 37.9333 29.749 37.9333Z" fill="url(#paint0_linear_1288_2636)"/>
<defs>
<linearGradient id="paint0_linear_1288_2636" x1="3.49756" y1="0.273705" x2="64.1067" y2="9.66413" gradientUnits="userSpaceOnUse">
<stop stop-color="#D9EDF4"/>
<stop offset="1" stop-color="#8DA1A9"/>
</linearGradient>
</defs>
</svg>
