<svg width="640" height="640" viewBox="0 0 640 640" fill="none" xmlns="http://www.w3.org/2000/svg">
<rect width="640" height="640" rx="320" fill="#00ACEE"/>
<rect x="123" y="202" width="394" height="237" rx="69" fill="#D9D9D9"/>
<rect x="480" y="244" width="74" height="152" rx="37" fill="#D9D9D9"/>
<rect x="315" y="99" width="9" height="91" rx="4.5" fill="#3D3D3D"/>
<rect x="283" y="181" width="74" height="43" rx="21.5" fill="#D9D9D9"/>
<rect x="302" y="81" width="36" height="37" rx="18" fill="#D9D9D9"/>
<rect x="86" y="244" width="74" height="152" rx="37" fill="#D9D9D9"/>
<rect x="153" y="225" width="334" height="191" rx="69" fill="#3D3D3D"/>
<rect x="221" y="270" width="62" height="63" rx="31" fill="#00ACEE"/>
<rect x="349.5" y="262.5" width="77" height="78" rx="38.5" stroke="#00ACEE" stroke-width="7"/>
<path d="M409.5 332C411.667 345.833 448.5 374 470 392.5" stroke="#00ACEE" stroke-width="11"/>
<path d="M336 225C336 238.5 338 259 359.5 277.5" stroke="#00ACEE" stroke-width="11"/>
<rect x="362" y="318.841" width="62" height="12" rx="6" transform="rotate(-45 362 318.841)" fill="#00ACEE"/>
<rect x="370.485" y="275" width="62" height="12" rx="6" transform="rotate(45 370.485 275)" fill="#00ACEE"/>
</svg>
