<svg width="640" height="640" viewBox="0 0 640 640" fill="none" xmlns="http://www.w3.org/2000/svg">
<rect width="640" height="640" rx="320" fill="#00ACEE"/>
<rect x="123" y="202" width="394" height="237" rx="69" fill="#D9D9D9"/>
<rect x="480" y="244" width="74" height="152" rx="37" fill="#D9D9D9"/>
<rect x="315" y="99" width="9" height="91" rx="4.5" fill="#3D3D3D"/>
<rect x="283" y="181" width="74" height="43" rx="21.5" fill="#D9D9D9"/>
<rect x="302" y="81" width="36" height="37" rx="18" fill="#D9D9D9"/>
<rect x="86" y="244" width="74" height="152" rx="37" fill="#D9D9D9"/>
<rect x="153" y="225" width="334" height="191" rx="69" fill="#3D3D3D"/>
<path d="M315.478 345.855C314.426 343.091 311.209 341.741 308.309 342.847L293.102 348.628L302.328 315.786C302.654 314.635 302.6 313.448 302.183 312.342C301.068 309.415 297.661 307.983 294.579 309.161L269.34 318.749C267.945 319.275 266.83 320.29 266.187 321.586C265.525 322.927 265.444 324.422 265.96 325.791C267.011 328.564 270.247 329.923 273.165 328.818L287.873 323.226L278.566 355.887C278.231 357.066 278.276 358.28 278.702 359.404C279.563 361.669 281.783 363.047 284.176 363.047C284.919 363.047 285.68 362.911 286.423 362.63L312.124 352.861C315.024 351.755 316.529 348.61 315.478 345.855Z" fill="#00ACEE"/>
<path d="M345.919 318.024C345.411 315.043 342.448 313.058 339.321 313.584L322.909 316.375L338.669 285.227C339.222 284.131 339.403 282.925 339.203 281.738C338.669 278.575 335.524 276.473 332.198 277.035L304.956 281.684C303.452 281.938 302.129 282.726 301.222 283.913C300.289 285.137 299.917 286.614 300.162 288.091C300.67 291.091 303.651 293.084 306.796 292.55L322.673 289.849L306.859 320.798C306.292 321.893 306.098 323.143 306.307 324.359C306.723 326.806 308.681 328.628 311.082 329.099C311.826 329.244 312.614 329.262 313.421 329.126L341.161 324.404C344.287 323.87 346.426 321.006 345.919 318.024Z" fill="#00ACEE"/>
<path d="M374.321 329.479C374.157 327.549 372.372 326.117 370.342 326.289L359.703 327.187L371.457 308.146C371.874 307.476 372.055 306.714 371.991 305.953C371.819 303.905 369.925 302.392 367.777 302.573L350.133 304.05C349.174 304.126 348.28 304.564 347.631 305.273C346.97 305.998 346.653 306.932 346.734 307.883C346.897 309.823 348.692 311.264 350.731 311.092L361.017 310.222L349.236 329.126C348.81 329.806 348.619 330.585 348.692 331.364C348.828 332.95 349.979 334.219 351.483 334.654C351.954 334.79 352.453 334.844 352.969 334.799L370.94 333.286C372.97 333.123 374.484 331.41 374.321 329.479Z" fill="#00ACEE"/>
</svg>
