<svg width="640" height="640" viewBox="0 0 640 640" fill="none" xmlns="http://www.w3.org/2000/svg">
<rect width="640" height="640" rx="320" fill="#00ACEE"/>
<rect x="123" y="202" width="394" height="237" rx="69" fill="#D9D9D9"/>
<rect x="480" y="244" width="74" height="152" rx="37" fill="#D9D9D9"/>
<rect x="315" y="99" width="9" height="91" rx="4.5" fill="#3D3D3D"/>
<rect x="283" y="181" width="74" height="43" rx="21.5" fill="#D9D9D9"/>
<rect x="302" y="81" width="36" height="37" rx="18" fill="#D9D9D9"/>
<rect x="86" y="244" width="74" height="152" rx="37" fill="#D9D9D9"/>
<rect x="153" y="225" width="334" height="191" rx="69" fill="#3D3D3D"/>
<path d="M246.389 337H238.935L255.685 290.455H263.798L280.548 337H273.094L259.935 298.909H259.571L246.389 337ZM247.639 318.773H271.821V324.682H247.639V318.773ZM312.281 302.682C312.039 300.53 311.039 298.864 309.281 297.682C307.524 296.485 305.312 295.886 302.645 295.886C300.736 295.886 299.084 296.189 297.69 296.795C296.296 297.386 295.213 298.205 294.44 299.25C293.683 300.28 293.304 301.455 293.304 302.773C293.304 303.879 293.562 304.833 294.077 305.636C294.607 306.439 295.296 307.114 296.145 307.659C297.009 308.189 297.933 308.636 298.918 309C299.902 309.348 300.849 309.636 301.759 309.864L306.304 311.045C307.789 311.409 309.312 311.902 310.872 312.523C312.433 313.144 313.88 313.962 315.213 314.977C316.546 315.992 317.622 317.25 318.44 318.75C319.274 320.25 319.69 322.045 319.69 324.136C319.69 326.773 319.009 329.114 317.645 331.159C316.296 333.205 314.334 334.818 311.759 336C309.198 337.182 306.099 337.773 302.463 337.773C298.978 337.773 295.963 337.22 293.418 336.114C290.872 335.008 288.88 333.439 287.44 331.409C286.001 329.364 285.205 326.939 285.054 324.136H292.099C292.236 325.818 292.781 327.22 293.736 328.341C294.705 329.447 295.94 330.273 297.44 330.818C298.955 331.348 300.615 331.614 302.418 331.614C304.402 331.614 306.168 331.303 307.713 330.682C309.274 330.045 310.501 329.167 311.395 328.045C312.289 326.909 312.736 325.583 312.736 324.068C312.736 322.689 312.342 321.561 311.554 320.682C310.781 319.803 309.728 319.076 308.395 318.5C307.077 317.924 305.584 317.417 303.918 316.977L298.418 315.477C294.69 314.462 291.736 312.97 289.554 311C287.387 309.03 286.304 306.424 286.304 303.182C286.304 300.5 287.031 298.159 288.486 296.159C289.94 294.159 291.91 292.606 294.395 291.5C296.88 290.379 299.683 289.818 302.804 289.818C305.955 289.818 308.736 290.371 311.145 291.477C313.569 292.583 315.478 294.106 316.872 296.045C318.266 297.97 318.993 300.182 319.054 302.682H312.281ZM328.082 337V290.455H356.946V296.5H335.105V310.682H354.878V316.705H335.105V337H328.082ZM390.969 302.682C390.726 300.53 389.726 298.864 387.969 297.682C386.211 296.485 383.999 295.886 381.332 295.886C379.423 295.886 377.772 296.189 376.378 296.795C374.984 297.386 373.901 298.205 373.128 299.25C372.37 300.28 371.991 301.455 371.991 302.773C371.991 303.879 372.249 304.833 372.764 305.636C373.295 306.439 373.984 307.114 374.832 307.659C375.696 308.189 376.62 308.636 377.605 309C378.59 309.348 379.537 309.636 380.446 309.864L384.991 311.045C386.476 311.409 387.999 311.902 389.56 312.523C391.12 313.144 392.567 313.962 393.901 314.977C395.234 315.992 396.31 317.25 397.128 318.75C397.961 320.25 398.378 322.045 398.378 324.136C398.378 326.773 397.696 329.114 396.332 331.159C394.984 333.205 393.022 334.818 390.446 336C387.885 337.182 384.787 337.773 381.151 337.773C377.666 337.773 374.651 337.22 372.105 336.114C369.56 335.008 367.567 333.439 366.128 331.409C364.688 329.364 363.893 326.939 363.741 324.136H370.787C370.923 325.818 371.469 327.22 372.423 328.341C373.393 329.447 374.628 330.273 376.128 330.818C377.643 331.348 379.302 331.614 381.105 331.614C383.09 331.614 384.855 331.303 386.401 330.682C387.961 330.045 389.188 329.167 390.082 328.045C390.976 326.909 391.423 325.583 391.423 324.068C391.423 322.689 391.029 321.561 390.241 320.682C389.469 319.803 388.416 319.076 387.082 318.5C385.764 317.924 384.272 317.417 382.605 316.977L377.105 315.477C373.378 314.462 370.423 312.97 368.241 311C366.075 309.03 364.991 306.424 364.991 303.182C364.991 300.5 365.719 298.159 367.173 296.159C368.628 294.159 370.598 292.606 373.082 291.5C375.567 290.379 378.37 289.818 381.491 289.818C384.643 289.818 387.423 290.371 389.832 291.477C392.257 292.583 394.166 294.106 395.56 296.045C396.954 297.97 397.681 300.182 397.741 302.682H390.969Z" fill="#00ACEE"/>
</svg>
