<svg width="21" height="22" viewBox="0 0 21 22" fill="none" xmlns="http://www.w3.org/2000/svg">
<g opacity="0.5">
<path fill-rule="evenodd" clip-rule="evenodd" d="M6.57361 7.6438H13.7341C15.7289 7.6438 17.3462 9.28345 17.3462 11.3058V15.6363C17.3462 17.6587 15.7289 19.2983 13.7341 19.2983H6.57361C4.57885 19.2983 2.96155 17.6587 2.96155 15.6363V11.3058C2.96155 9.28345 4.57885 7.6438 6.57361 7.6438ZM10.1496 15.2014C10.5709 15.2014 10.9062 14.8614 10.9062 14.4343V12.4991C10.9062 12.0807 10.5709 11.7408 10.1496 11.7408C9.73685 11.7408 9.40152 12.0807 9.40152 12.4991V14.4343C9.40152 14.8614 9.73685 15.2014 10.1496 15.2014Z" fill="url(#paint0_linear_1273_2633)"/>
<path opacity="0.4" d="M14.827 6.48769V7.77779C14.526 7.69062 14.2079 7.64704 13.8812 7.64704H13.3223V6.48769C13.3223 4.71815 11.9036 3.27986 10.1582 3.27986C8.41279 3.27986 6.9941 4.70943 6.9855 6.47025V7.64704H6.43522C6.0999 7.64704 5.78177 7.69062 5.48083 7.78651V6.48769C5.48943 3.87261 7.57877 1.75439 10.141 1.75439C12.7376 1.75439 14.827 3.87261 14.827 6.48769" fill="url(#paint1_linear_1273_2633)"/>
</g>
<defs>
<linearGradient id="paint0_linear_1273_2633" x1="2.96155" y1="6.92817" x2="19.366" y2="10.0652" gradientUnits="userSpaceOnUse">
<stop stop-color="#00ACEE"/>
<stop offset="1" stop-color="#00738D"/>
</linearGradient>
<linearGradient id="paint1_linear_1273_2633" x1="5.48083" y1="1.384" x2="15.9271" y2="3.89168" gradientUnits="userSpaceOnUse">
<stop stop-color="#00ACEE"/>
<stop offset="1" stop-color="#00738D"/>
</linearGradient>
</defs>
</svg>
