<svg width="21" height="22" viewBox="0 0 21 22" fill="none" xmlns="http://www.w3.org/2000/svg">
<g opacity="0.5">
<path opacity="0.4" d="M18.6153 13.9827C18.6153 16.4301 16.72 18.4125 14.3592 18.4213H14.3507H5.96534C3.61303 18.4213 1.69226 16.4476 1.69226 14.0002V13.9915C1.69226 13.9915 1.69734 10.109 1.70411 8.15638C1.70495 7.78971 2.11111 7.58445 2.3878 7.81252C4.39826 9.46603 7.99357 12.4809 8.03841 12.5204C8.63918 13.0195 9.40072 13.3011 10.1792 13.3011C10.9576 13.3011 11.7192 13.0195 12.32 12.5108C12.3648 12.4801 15.8797 9.5555 17.9206 7.8748C18.1982 7.64585 18.606 7.85112 18.6069 8.21691C18.6153 10.1546 18.6153 13.9827 18.6153 13.9827" fill="url(#paint0_linear_1273_2632)"/>
<path d="M18.172 4.97696C17.4392 3.54538 15.9973 2.63135 14.41 2.63135H5.96534C4.37796 2.63135 2.93611 3.54538 2.20334 4.97696C2.03919 5.29714 2.11703 5.69626 2.39034 5.92258L8.67303 11.1322C9.11303 11.5006 9.64611 11.684 10.1792 11.684C10.1826 11.684 10.1851 11.684 10.1876 11.684C10.1902 11.684 10.1936 11.684 10.1961 11.684C10.7292 11.684 11.2623 11.5006 11.7023 11.1322L17.985 5.92258C18.2583 5.69626 18.3361 5.29714 18.172 4.97696" fill="url(#paint1_linear_1273_2632)"/>
</g>
<defs>
<linearGradient id="paint0_linear_1273_2632" x1="1.69226" y1="7.0595" x2="20.565" y2="11.6822" gradientUnits="userSpaceOnUse">
<stop stop-color="#00ACEE"/>
<stop offset="1" stop-color="#00738D"/>
</linearGradient>
<linearGradient id="paint1_linear_1273_2632" x1="2.11792" y1="2.07548" x2="19.8441" y2="6.97192" gradientUnits="userSpaceOnUse">
<stop stop-color="#00ACEE"/>
<stop offset="1" stop-color="#00738D"/>
</linearGradient>
</defs>
</svg>
