<svg width="21" height="22" viewBox="0 0 21 22" fill="none" xmlns="http://www.w3.org/2000/svg">
<path opacity="0.4" fill-rule="evenodd" clip-rule="evenodd" d="M15.0078 5.30358C16.4525 6.45956 17.6825 8.15313 18.5658 10.2711C18.6318 10.4319 18.6318 10.6199 18.5658 10.773C16.7992 15.0091 13.654 17.5439 10.1538 17.5439H10.1455C6.65361 17.5439 3.5084 15.0091 1.74179 10.773C1.67575 10.6199 1.67575 10.4319 1.74179 10.2711C3.5084 6.03425 6.65361 3.50879 10.1455 3.50879H10.1538C11.9039 3.50879 13.5632 4.13824 15.0078 5.30358ZM6.85174 10.5263C6.85174 12.3977 8.32941 13.9203 10.1538 13.9203C11.9699 13.9203 13.4476 12.3977 13.4476 10.5263C13.4476 8.64648 11.9699 7.12389 10.1538 7.12389C8.32941 7.12389 6.85174 8.64648 6.85174 10.5263Z" fill="#09051C"/>
<path d="M12.2108 10.5235C12.2108 11.6888 11.2862 12.6415 10.1552 12.6415C9.01601 12.6415 8.09143 11.6888 8.09143 10.5235C8.09143 10.3789 8.10794 10.2436 8.13271 10.1076H8.17398C9.09031 10.1076 9.83327 9.35901 9.86629 8.42249C9.9571 8.40633 10.0562 8.39697 10.1552 8.39697C11.2862 8.39697 12.2108 9.34966 12.2108 10.5235" fill="#09051C"/>
</svg>
